<?xml version="1.0" ?><svg viewBox="0 0 512 512" xmlns="http://www.w3.org/2000/svg"><g id="Melon"><path d="M265.7,146.42V105.91c0-.11,0-.22,0-.32a154.19,154.19,0,0,0,44-27.09,8.5,8.5,0,1,0-11.32-12.68c-39.7,35.44-97.27,37.41-97.85,37.43a8.5,8.5,0,0,0,.22,17h.21a195.08,195.08,0,0,0,47.77-8.58v34.75C169.47,150.84,106.36,216.7,106.36,297c0,83.17,67.67,150.84,150.84,150.84S408,380.19,408,297C408,216.7,344.93,150.84,265.7,146.42Zm54,234,12.56,10.73a8.5,8.5,0,1,1-11.05,12.93l-12.82-11-22.53,25.26A8.5,8.5,0,0,1,273.17,407l64.13-71.92-38.71-32-102,90.77a8.5,8.5,0,1,1-11.3-12.7l13.94-12.41L171.76,297,149,310.2a8.5,8.5,0,0,1-8.53-14.71l45.29-26.34,19.92-11.6c-4-4-7.88-8.05-11.7-12-7.19-7.4-14.62-15.05-22.08-22.34a8.5,8.5,0,1,1,11.87-12.16c7.63,7.44,15.14,15.18,22.4,22.66,4.79,4.93,9.71,10,14.69,15,33.55-19.51,67.64-39.3,101.43-58.75A8.68,8.68,0,0,1,331,205L186.66,288.4l26.17,68.25L353.55,231.41a8.5,8.5,0,1,1,11.3,12.69l-53.41,47.55,37.18,30.77,20.69-23.21A8.5,8.5,0,1,1,382,310.52Z"/></g></svg>